<?xml version="1.0" encoding="UTF-8"?>
<svg xmlns="http://www.w3.org/2000/svg" viewBox="0 0 850.39 850.39">
  <defs>
    <style>
      .cls-1 {
        fill: #006cb5;
      }

      .cls-2 {
        fill: #286495;
      }

      .cls-3 {
        fill: #11519d;
      }

      .cls-4 {
        fill: #0b040c;
        mix-blend-mode: multiply;
        opacity: .17;
      }

      .cls-5 {
        fill: #42aa5a;
      }

      .cls-6 {
        fill: none;
        isolation: isolate;
      }

      .cls-7 {
        fill: #ff7122;
      }

      .cls-8 {
        fill: #0e529d;
      }
    </style>
  </defs>
  <g class="cls-6">
    <g id="Capa_1" data-name="Capa 1">
      <g>
        <g>
          <path class="cls-7" d="m431.25,502.34c4.39,0,8.22,1.11,11.39,3.33,2.89,2.33,4.5,5.61,4.78,9.89h-4.78c-1.39,0-2.5-.67-3.39-1.94-1.5-3.06-4.11-4.56-7.78-4.56-6.5,0-9.83,4.11-9.89,12.39-.06,8.28,3.33,12.72,10.28,13.22,5.22,0,8.28-3.5,9.11-8.05h-4.56c-2.17,0-3.89-1.72-3.89-3.89v-2.39h15.39v20.39h-1.94c-1.83,0-3.61-1.22-3.78-2.94l-.33-1.83c-2.67,3.44-5.39,5.33-10.83,5.33-10.83,0-17.39-8.39-17.39-19.44-.17-11.17,6.44-19.94,17.61-19.5Z"/>
          <path class="cls-7" d="m451.58,525.56c.22-9.5,5.28-14.22,15.11-14.22h1.06v7.67h-2.5c-4.11,0-6.17,2.17-6.17,6.44v15.28h-7.5v-15.17Z"/>
          <path class="cls-7" d="m497.69,526.17c0,10.11-4.5,15.22-13.39,15.22s-13.33-5.11-13.33-15.22,4.44-15.28,13.33-15.28,13.39,5.06,13.39,15.28Zm-19.22,0c.06,5.72,2,8.61,5.78,8.61s5.67-3,5.72-8.83c0-5.72-1.89-8.56-5.67-8.56s-5.83,2.94-5.83,8.78Z"/>
          <path class="cls-7" d="m525.96,529.01c0,5.05-1.28,8.39-3.89,10-2.61,1.5-5.5,2.28-8.67,2.28s-5.78-.83-8.33-2.5c-2.56-1.61-3.83-4.83-3.83-9.78v-17.67h7.39v19.16c0,3.28,1.67,4.89,5,4.89s5-1.61,5-4.89v-15.5c-.06-2.44,1.11-3.67,3.56-3.67h3.78v17.67Z"/>
          <path class="cls-7" d="m536.57,548.56c0,2.44-1.22,3.67-3.67,3.67h-3.72v-28.11c.39-8.78,4.94-13.11,13.78-13.11s13.67,4.94,13.67,14.83-3.89,15.17-11.72,15.44c-3.67,0-6.44-1.5-8.33-4.55v11.83Zm6.28-13.89c4,0,6.06-2.83,6.22-8.5,0-5.94-2.11-8.89-6.33-8.89s-6.22,2.94-6.17,8.89c.22,5.67,2.28,8.5,6.28,8.5Z"/>
        </g>
        <g>
          <path class="cls-7" d="m184.51,332.78h55.71v14.31h-23.77v66.12h-16.44v-66.12h-23.77v-5.68c0-4.61,3.67-8.63,8.28-8.63Z"/>
          <path class="cls-7" d="m240.81,380.91c.47-20.22,11.24-30.28,32.17-30.28h2.25v16.32h-5.32c-8.75,0-13.13,4.61-13.13,13.72v32.53h-15.97v-32.29Z"/>
          <path class="cls-7" d="m298.76,366.96h-15.73c1.89-11.59,10.05-17.27,24.48-17.27,17.27,0,26.02,5.68,26.38,17.27v21.29c0,17.27-10.41,24.96-27.32,26.14-15.02,1.18-25.43-5.8-25.43-19.63.36-15.02,11.24-19.04,27.09-20.58,6.74-.83,10.17-2.84,10.17-6.27-.36-3.55-3.67-5.32-10.17-5.32-5.56,0-8.63,1.42-9.46,4.38Zm19.87,20.58v-5.8c-3.67,1.54-7.92,2.84-12.54,3.78-6.27,1.18-9.46,4.14-9.46,8.75.35,4.97,2.96,7.33,7.92,7.33,8.75,0,14.07-5.2,14.07-14.07Z"/>
          <path class="cls-7" d="m398.7,350.64l-22.12,62.57h-16.68l-22-62.57h17.39l12.66,43.88,10.88-38.32c1.18-3.67,3.78-5.56,7.69-5.56h12.18Z"/>
          <path class="cls-7" d="m430.16,414.62c-18.92-.59-28.39-11.59-28.39-32.88s9.58-31.93,28.62-32.05c19.87,0,29.21,12.18,28.03,36.67h-40.45c.59,9.58,4.73,14.43,12.42,14.43,3.67,0,7.1-1.54,10.17-4.49,1.42-1.54,3.19-2.25,5.32-2.25h11.59c-3.43,13.25-11.95,20.58-27.32,20.58Zm-11.95-39.5h23.54c-.95-8.28-4.85-12.54-11.59-12.54s-10.76,4.26-11.95,12.54Z"/>
          <path class="cls-7" d="m481.49,340.46v72.74h-15.73v-80.43h8.16c4.14,0,7.57,3.55,7.57,7.69Z"/>
        </g>
        <g>
          <path class="cls-1" d="m298.94,494.64c-21.7,0-32.5-14.33-32.5-36.34s11.42-36.45,33.75-36.45c8.62,0,15.58,2.08,20.87,6.44,4.98,4.47,7.79,10.59,8.51,18.28h-8.72c-3.12,0-5.4-1.45-6.75-4.26-2.39-5.09-7.06-7.68-13.91-7.68-13.39,0-19.31,9.45-19.31,23.67s5.71,23.57,18.9,23.57c9.03,0,14.23-4.98,15.78-12.77h14.02c-1.35,16.3-12.77,25.54-30.63,25.54Z"/>
          <path class="cls-1" d="m361.03,494.85c-16.61-.52-24.92-10.18-24.92-28.87s8.41-28.04,25.13-28.14c17.44,0,25.65,10.69,24.61,32.19h-35.51c.52,8.41,4.15,12.67,10.9,12.67,3.22,0,6.23-1.35,8.93-3.95,1.25-1.35,2.8-1.97,4.67-1.97h10.18c-3.01,11.63-10.49,18.07-23.99,18.07Zm-10.49-34.68h20.66c-.83-7.27-4.26-11.01-10.18-11.01s-9.45,3.74-10.49,11.01Z"/>
          <path class="cls-1" d="m432.05,493.6c-4.57-.31-6.85-2.49-6.85-6.85v-28.24c-.31-5.71-3.43-8.51-9.55-8.51s-9.24,2.8-9.35,8.51v35.1h-14.02v-32.29c0-15.68,7.89-23.47,23.57-23.47s23.36,7.79,23.26,23.47v32.29h-7.06Z"/>
          <path class="cls-1" d="m460.6,448.54h-1.45v30.42c0,2.28,1.35,3.53,4.05,3.53h4.26v10.49c-4.46.42-9.34.42-14.54-.1-5.19-.52-7.68-3.74-7.58-9.86v-60.02h7.16c3.63,0,6.65,3.32,6.65,6.96v8.72h8.31v3.01c0,3.95-3.01,6.85-6.85,6.85Z"/>
          <path class="cls-1" d="m497.77,494.85c-16.61-.52-24.92-10.18-24.92-28.87s8.41-28.04,25.13-28.14c17.44,0,25.65,10.69,24.61,32.19h-35.51c.52,8.41,4.15,12.67,10.9,12.67,3.22,0,6.23-1.35,8.93-3.95,1.25-1.35,2.8-1.97,4.67-1.97h10.18c-3.01,11.63-10.49,18.07-23.99,18.07Zm-10.49-34.68h20.66c-.83-7.27-4.26-11.01-10.18-11.01s-9.45,3.74-10.49,11.01Z"/>
          <path class="cls-1" d="m529.02,465.26c.42-17.76,9.86-26.58,28.24-26.58h1.97v14.33h-4.67c-7.68,0-11.53,4.05-11.53,12.05v28.55h-14.02v-28.35Z"/>
        </g>
        <path class="cls-1" d="m482.27,296.21c17.43-3.55,35.02-3.95,52.72-1.05,36.76,6.02,67.53,22.85,92.2,50.56.43.48,1,.89,1.18,1.7-9.66-2.43-19.3-4.5-29.05-5.99-12.57-1.93-25.19-3.06-37.87-3.18-1.32-.01-2.14-.37-2.97-1.49-2.54-3.43-6.17-5.71-9.56-8.24-1.02-.76-2.1-1.47-3.05-2.31-3.34-2.97-7.24-3.64-11.46-3.01-2.49.37-4.11,1.98-5.47,3.9-1.21,1.7-2.35,3.45-3.64,5.1-.91,1.17-2.15,1.77-3.69.9-1.13-.64-2.18-1.25-.73-2.63,1.05-1,.27-1.83-.77-2.26-1.05-.44-2.2-.63-3.28-1.01-4.37-1.54-5.78-5.85-3.11-9.49,1.55-2.1,3.69-3.5,5.97-4.74,2.09-1.13,4.19-2.25,6.24-3.45.72-.43,1.53-1.05,1.22-2.03-.29-.91-1.25-1.15-2.11-1.33-1.07-.23-2.13-.16-3.2-.03-.92.11-2.23.66-2.35-.92-.11-1.34-.57-3.04,1.48-3.54.64-.16,1.32-.2,1.97-.31.51-.09,1.24-.06,1.28-.67.04-.59-.64-.83-1.15-.96-2.87-.73-5.73-1.52-8.63-2.1-9.98-1.98-20-2.03-30.03-1.07-.66.06-1.33.07-1.99.1-.05-.14-.11-.28-.16-.43Z"/>
        <path class="cls-8" d="m482.43,296.64c-.46.27-.81.05-1.26-.34.44-.03.77-.06,1.1-.08.05.14.11.28.16.43Z"/>
        <path class="cls-1" d="m569.49,570.04c.42-1.03,1.29-1.13,1.96-1.45,3.76-1.81,7.54-3.59,11.1-5.75,3.03-1.84,2.79-3.2,1.62-5.44-4.17-7.92-4.11-6.44-.54-14.4,1.17-2.6,1.26-4.55-.61-6.83-1.45-1.78-1.17-3.46.51-5.55,5.58-6.91,11.1-13.86,16.07-21.22,2.49-3.68,4.89-7.4,6.75-11.45.59-1.28.48-1.94-.89-2.78-5.35-3.26-8.77-7.81-9.28-14.1-.38-4.66,1.61-8.08,5.56-10.45,4.29-2.57,9.09-3.82,14.07-4.02,5.09-.21,8.58-2.78,11.8-6.09.94-.96.83-1.71-.27-2.59-4.6-3.71-8.71-7.94-12.96-12.02-.43-.42-.94-.81-1.23-1.31-1.44-2.51-3.75-3.06-6.37-2.94-3.75.17-7.47.33-11.19-.69-5.78-1.6-10.04-7.29-9.63-13.1.08-1.19-.35-1.97-1.35-2.65-3.72-2.56-7.67-4.75-11.69-6.8-11.4-5.82-16.13-15.63-17.36-27.34-.49-4.67,2.39-8.24,5.47-11.5,2.62-2.77,4.43-5.97,5.07-9.76.46-2.69-.22-5.05-2.35-7-1.35-1.23-2.42-2.66-3.01-4.7,3.34-.06,6.57-.16,9.8-.19,17.1-.13,34.16.62,51.06,3.94,7.08,1.39,14.02,3.3,20.69,6.16.98.42,1.65,1,2.16,1.93,17.8,31.96,23.77,65.6,15.43,100.61-11.43,47.98-41.31,80.7-87.91,98.87-.73.28-1.44.69-2.49.61Zm53.54-157.05c-2.28-1.01-5.31-1.53-8.41-1.68-3.8-.19-5.58,1.16-5.71,4.86-.07,2.13-.49,3.93-1.95,5.46-.27.28-.46.63-.67.96-3.16,4.99-.41,12.23,5.36,14.11,1.35.44,2.62.45,3.7-.64.45-.46,1.02-.88,1.62-1.1,1.45-.54,3.1-.95,4.43.01,1.44,1.04.12,2.26-.25,3.35-.65,1.89-.19,3.46,1.26,4.85,2.03,1.95,4.21,3.74,6.5,5.39.96.69,1.66,1.46.92,2.63-2.33,3.66.62,10.25,4.13,12.82,2.38,1.75,4.77,1.67,6.73-.21,1.74-1.67,2.05-1.64,3.19.6,1.35,2.68,3.56,4.28,6.39,5.14,2.26.68,3.31.19,4.34-1.89,1.38-2.78,2.19-5.75,2.46-8.81,1.61-18.34,2.4-36.65-4.22-54.59-1.49-4.03-2.98-4.72-6.6-2.36-.5.32-.97.68-1.43,1.05-3.25,2.59-5.52,5.93-7.32,9.56-1.3,2.63-2.44,5.41-1.23,8.45.49,1.23.76,2.39-.36,3.21-1.27.92-2.77,1.27-4.34.46-.66-.34-1.02-.89-.99-1.6.19-4.93-2.35-8.02-7.53-10.02Zm-31.55,136.95c-.27.66-.62,1.31-.8,2-.27,1.04-1.57,2.21-.17,3.16,1.25.84,2.42-.11,3.43-.85.42-.3.77-.71,1.13-1.09,1.77-1.88,3.06-4.05,3.94-6.46.69-1.89,1.93-3.17,3.94-3.8,1.64-.51,3.25-1.16,4.64-2.21,1.39-1.05,2.21-2.39,2.2-4.16,0-.85,0-1.72-.94-2.25-1.01-.58-1.97-.39-2.83.2-1.75,1.21-3.1,2.81-4.32,4.51-.54.75-1.04,1.56-1.96,1.87-4.51,1.51-6.86,4.87-8.27,9.08Z"/>
        <path class="cls-3" d="m568.22,570.62c-.2.23-.55.27-.65.05-.23-.51.36-.31.55-.47.03.14.07.28.1.42Z"/>
        <path class="cls-3" d="m568.47,570.05c.25-.11.57-.37.73.05.11.27-.21.33-.45.35-.09-.13-.19-.26-.28-.39Z"/>
        <path class="cls-3" d="m568.11,570.21c.1-.09.22-.14.36-.15.09.13.19.26.28.39-.18.06-.36.12-.54.18-.03-.14-.07-.28-.1-.42Z"/>
        <path class="cls-4" d="m591.48,548.29c1.41-4.2,3.75-7.57,8.27-9.08.92-.31,1.42-1.12,1.96-1.87,1.23-1.7,2.57-3.3,4.32-4.51.86-.59,1.82-.77,2.83-.2.93.53.93,1.39.94,2.25.01,1.77-.81,3.11-2.2,4.16-1.39,1.04-2.99,1.7-4.64,2.21-2.01.63-3.26,1.91-3.94,3.8-.88,2.41-2.17,4.58-3.94,6.46-.36.38-.71.78-1.13,1.09-1.02.74-2.19,1.69-3.43.85-1.4-.95-.1-2.11.17-3.16.18-.69.53-1.33.8-2Z"/>
        <path class="cls-1" d="m628.2,347.43s8.74,10.29,16.32,22.34c-5.43-3.12-83.76-11.56-83.76-11.56,0,0,2.68-16-1.35-20.5,0,0,50.37,1.27,68.8,9.72Z"/>
        <path class="cls-4" d="m490.95,400.87c3.4-1.19,65.71-24.84,65.71-24.84l-14.92-3.72c3.29-3.98,6.72-7.83,10.32-11.46,5.96-5.98,12.36-11.41,19.18-15.81,6.82-4.39,14.09-7.74,21.56-9.24,3.73-.76,7.51-1.08,11.3-.86,3.79.23,7.48.99,11.48,2.29,15.64,5.04,29.99,16.45,37.98,31.98,4.02,7.74,6.4,16.46,6.99,25.46.29,4.5.2,9.07-.34,13.63-.55,4.55-1.47,9.09-2.69,13.58,1.87-4.25,3.49-8.64,4.74-13.18,1.25-4.54,2.06-9.22,2.47-13.98.81-9.52-.27-19.39-3.46-28.74-3.16-9.36-8.35-18.13-15.05-25.66-6.71-7.53-14.9-13.87-24.16-18.52-4.54-2.3-9.76-4.32-15.13-5.48-5.38-1.17-10.94-1.57-16.41-1.32-10.99.49-21.46,3.59-30.99,7.83-9.56,4.27-18.32,9.7-26.47,15.71-3.99,2.95-7.84,6.05-11.56,9.26-2.11-8.49-4.22-16.13-4.74-15.06-1.11,2.29-25.81,68.13-25.81,68.13Z"/>
        <path class="cls-7" d="m489.28,393.12c3.4-1.19,65.71-24.84,65.71-24.84l-14.92-3.72c3.29-3.98,6.72-7.83,10.32-11.45,5.96-5.98,12.36-11.41,19.19-15.8,6.82-4.39,14.09-7.74,21.56-9.24,3.73-.76,7.52-1.08,11.3-.86,3.79.23,7.48.99,11.48,2.29,15.64,5.04,29.99,16.45,37.98,31.98,4.02,7.74,6.4,16.46,6.99,25.46.29,4.5.2,9.07-.34,13.63-.55,4.55-1.47,9.09-2.69,13.58,1.87-4.25,3.49-8.64,4.74-13.18,1.25-4.54,2.07-9.22,2.47-13.98.81-9.52-.27-19.39-3.46-28.74-3.16-9.36-8.35-18.13-15.05-25.66-6.71-7.53-14.9-13.87-24.16-18.52-4.54-2.3-9.76-4.32-15.13-5.48-5.38-1.17-10.94-1.57-16.41-1.32-10.99.49-21.46,3.59-30.99,7.83-9.56,4.27-18.32,9.7-26.47,15.71-3.99,2.95-7.84,6.05-11.56,9.26-2.11-8.49-4.22-16.13-4.74-15.06-1.11,2.29-25.81,68.13-25.81,68.13Z"/>
        <path class="cls-4" d="m621.79,410.92c5.18,2,7.72,5.09,7.53,10.02-.03.72.33,1.26.99,1.6,1.57.81,3.08.47,4.34-.46,1.12-.82.85-1.98.36-3.21-1.21-3.04-.07-5.83,1.23-8.45,1.8-3.63,4.07-6.98,7.32-9.56.46-.37.93-.73,1.43-1.05,3.62-2.36,5.12-1.67,6.6,2.36,6.62,17.94,5.83,36.24,4.22,54.59-.27,3.06-1.08,6.03-2.46,8.81-1.03,2.07-2.08,2.57-4.34,1.89-2.83-.86-5.03-2.46-6.39-5.14-1.13-2.24-1.45-2.26-3.19-.6-1.96,1.88-4.34,1.96-6.73.21-3.51-2.57-6.45-9.16-4.13-12.82.74-1.17.04-1.94-.92-2.63-2.29-1.65-4.47-3.44-6.5-5.39-1.45-1.39-1.9-2.96-1.26-4.85.37-1.08,1.68-2.31.25-3.35-1.33-.96-2.98-.55-4.43-.01-.6.22-1.17.65-1.62,1.1-1.08,1.1-2.35,1.08-3.7.64-5.77-1.88-8.52-9.12-5.36-14.11.21-.33.4-.68.67-.96,1.46-1.54,1.87-3.34,1.95-5.46.13-3.69,1.92-5.05,5.71-4.86,3.1.16,6.13.68,8.41,1.68Z"/>
        <path class="cls-2" d="m653.39,388.56s7.5,20.31,8.75,31.48c-1.69,4.71-5.38,4.96-5.38,4.96,0,0-5.65-26.61-8.38-30.85-.73-4.77,5.01-5.59,5.01-5.59Z"/>
        <path class="cls-5" d="m623.03,412.99c5.18,2,7.72,5.09,7.53,10.02-.03.72.33,1.26.99,1.6,1.57.81,3.08.47,4.34-.46,1.12-.82.85-1.98.36-3.21-1.21-3.04-.07-5.83,1.23-8.45,1.8-3.63,4.07-6.98,7.32-9.56.46-.37.93-.73,1.43-1.05,3.62-2.36,5.12-1.67,6.6,2.36,6.62,17.94,5.83,36.24,4.22,54.59-.27,3.06-1.08,6.03-2.46,8.81-1.03,2.07-2.08,2.57-4.34,1.89-2.83-.86-5.03-2.46-6.39-5.14-1.13-2.24-1.45-2.26-3.19-.6-1.96,1.88-4.34,1.96-6.73.21-3.51-2.57-6.45-9.16-4.13-12.82.74-1.17.04-1.94-.92-2.63-2.29-1.65-4.47-3.44-6.5-5.39-1.45-1.39-1.9-2.96-1.26-4.85.37-1.08,1.68-2.31.25-3.35-1.33-.96-2.98-.55-4.43-.01-.6.22-1.17.65-1.62,1.1-1.08,1.1-2.35,1.08-3.7.64-5.77-1.88-8.52-9.12-5.36-14.11.21-.33.4-.68.67-.96,1.46-1.54,1.87-3.34,1.95-5.46.13-3.69,1.92-5.05,5.71-4.86,3.1.16,6.13.68,8.41,1.68Z"/>
        <path class="cls-5" d="m591.48,549.94c1.41-4.2,3.75-7.57,8.27-9.08.92-.31,1.42-1.12,1.96-1.87,1.23-1.7,2.57-3.3,4.32-4.51.86-.59,1.82-.77,2.83-.2.93.53.93,1.39.94,2.25.01,1.77-.81,3.11-2.2,4.16-1.39,1.04-2.99,1.7-4.64,2.21-2.01.63-3.26,1.91-3.94,3.8-.88,2.41-2.17,4.58-3.94,6.46-.36.38-.71.78-1.13,1.09-1.02.74-2.19,1.69-3.43.85-1.4-.95-.1-2.11.17-3.16.18-.69.53-1.33.8-2Z"/>
      </g>
    </g>
  </g>
</svg>